<svg viewBox="0 0 450 300" version="1.1" xmlns="http://www.w3.org/2000/svg">
    <path d="M40.824,118.191C40.319,118.421 39.832,118.594 39.363,118.71C38.895,118.825 38.408,118.919 37.903,118.991L39.115,119.554C38.869,119.77 38.66,119.994 38.487,120.225C38.314,120.455 38.17,120.715 38.054,121.003C37.939,121.292 37.842,121.617 37.762,121.977C37.683,122.338 37.622,122.763 37.578,123.254L35.155,123.773C35.227,123.384 35.317,123.027 35.425,122.702C35.534,122.377 35.696,122.028 35.912,121.653C35.422,121.956 34.985,122.222 34.603,122.453C34.221,122.684 33.864,122.879 33.532,123.037C33.2,123.196 32.89,123.315 32.602,123.394C32.313,123.474 32.025,123.513 31.736,123.513C31.361,123.513 30.99,123.391 30.622,123.146C30.254,122.9 29.926,122.612 29.637,122.28C29.349,121.948 29.111,121.602 28.923,121.241C28.736,120.881 28.642,120.578 28.642,120.333C28.642,120.015 28.703,119.651 28.826,119.24C28.949,118.829 29.1,118.418 29.28,118.007C29.461,117.596 29.663,117.206 29.886,116.838C30.11,116.47 30.323,116.171 30.525,115.94C31.419,114.844 32.349,114.047 33.316,113.549C34.282,113.052 35.407,112.803 36.691,112.803C37.023,112.803 37.366,112.85 37.719,112.944C38.072,113.037 38.422,113.163 38.768,113.322C39.115,113.481 39.45,113.665 39.775,113.874C40.099,114.083 40.398,114.303 40.673,114.534L38.985,115.724C38.466,115.363 37.925,115.057 37.362,114.804C36.799,114.552 36.114,114.31 35.306,114.079C34.931,114.296 34.535,114.624 34.116,115.064C33.698,115.504 33.298,116.005 32.916,116.568C32.533,117.13 32.191,117.736 31.888,118.385C31.585,119.034 31.354,119.684 31.195,120.333C31.239,120.506 31.322,120.693 31.444,120.895C31.567,121.097 31.715,121.285 31.888,121.458C32.061,121.631 32.241,121.775 32.429,121.891C32.616,122.006 32.796,122.064 32.97,122.064C33.2,122.064 33.525,121.977 33.943,121.804C34.362,121.631 34.787,121.407 35.22,121.133C35.653,120.859 36.046,120.545 36.399,120.192C36.753,119.839 36.98,119.474 37.081,119.099C36.215,119.215 35.483,119.258 34.885,119.229C34.286,119.2 33.878,119.143 33.662,119.056L34.787,117.585C35.624,117.743 36.572,117.798 37.632,117.747C38.693,117.697 39.829,117.541 41.04,117.282L40.824,118.191Z" style="fill:white;fill-rule:nonzero;"/>
    <path d="M49.695,116.525C49.58,116.755 49.479,116.954 49.392,117.12C49.306,117.285 49.227,117.444 49.154,117.596C49.082,117.747 49.01,117.902 48.938,118.061C48.866,118.219 48.787,118.4 48.7,118.602L47.077,118.407C46.919,118.494 46.749,118.641 46.569,118.851C46.388,119.06 46.219,119.301 46.06,119.575C45.902,119.849 45.757,120.138 45.627,120.441C45.498,120.744 45.404,121.032 45.346,121.306C45.231,121.826 45.123,122.248 45.022,122.572C44.921,122.897 44.82,123.149 44.719,123.329C44.618,123.51 44.517,123.632 44.416,123.697C44.315,123.762 44.214,123.795 44.113,123.795C44.026,123.795 43.907,123.726 43.756,123.589C43.604,123.452 43.457,123.293 43.312,123.113C43.168,122.933 43.042,122.745 42.934,122.551C42.825,122.356 42.771,122.194 42.771,122.064C42.771,121.818 42.822,121.595 42.923,121.393C43.024,121.191 43.219,120.917 43.507,120.571C43.622,120.441 43.705,120.271 43.756,120.062C43.806,119.853 43.832,119.539 43.832,119.121C43.832,118.501 43.817,117.963 43.788,117.509C43.759,117.055 43.723,116.69 43.68,116.416L45.887,115.875C45.959,116.842 45.887,117.779 45.671,118.688C46.003,118.169 46.302,117.74 46.569,117.401C46.836,117.062 47.084,116.791 47.315,116.589C47.546,116.387 47.762,116.243 47.964,116.157C48.166,116.07 48.368,116.027 48.57,116.027C48.7,116.027 48.87,116.07 49.079,116.157C49.288,116.243 49.493,116.366 49.695,116.525Z" style="fill:white;fill-rule:nonzero;"/>
    <path d="M60.406,118.515C60.521,118.732 60.572,118.89 60.557,118.991C60.543,119.092 60.471,119.215 60.341,119.359C60.052,119.662 59.825,119.911 59.659,120.105C59.493,120.3 59.371,120.459 59.292,120.582C59.212,120.704 59.162,120.802 59.14,120.874C59.118,120.946 59.108,121.003 59.108,121.047C59.108,121.393 59.169,121.779 59.292,122.204C59.414,122.63 59.591,122.987 59.822,123.275L57.939,123.557C57.752,123.311 57.607,123.041 57.506,122.745C57.405,122.45 57.341,122.071 57.312,121.609C56.749,121.999 56.262,122.323 55.851,122.583C55.44,122.843 55.083,123.048 54.78,123.2C54.477,123.351 54.21,123.456 53.98,123.513C53.749,123.571 53.525,123.6 53.309,123.6C53.092,123.6 52.858,123.549 52.606,123.448C52.353,123.348 52.126,123.218 51.924,123.059C51.722,122.9 51.553,122.727 51.416,122.54C51.278,122.352 51.21,122.172 51.21,121.999C51.21,121.696 51.361,121.364 51.664,121.003C51.967,120.643 52.411,120.275 52.995,119.9C53.579,119.525 54.304,119.153 55.17,118.786C56.035,118.418 57.03,118.075 58.156,117.758C57.55,117.556 56.828,117.466 55.992,117.487C55.155,117.509 54.218,117.664 53.179,117.953L53.33,116.979C54.21,116.69 55.079,116.528 55.938,116.492C56.796,116.456 57.528,116.503 58.134,116.633C58.48,116.705 58.761,116.788 58.978,116.882C59.194,116.975 59.382,117.098 59.54,117.249C59.699,117.401 59.843,117.578 59.973,117.779C60.103,117.981 60.247,118.227 60.406,118.515ZM57.896,118.623C56.497,119.157 55.436,119.709 54.715,120.279C53.994,120.848 53.489,121.443 53.201,122.064L54.044,122.518C54.593,122.302 55.159,122.028 55.743,121.696C56.327,121.364 56.85,121.003 57.312,120.614C57.384,120.412 57.503,120.181 57.669,119.922C57.835,119.662 58.083,119.316 58.415,118.883L57.896,118.623Z" style="fill:white;fill-rule:nonzero;"/>
    <path d="M71.766,117.844C71.766,118.32 71.56,118.887 71.149,119.543C70.738,120.199 70.2,120.83 69.537,121.436C68.873,122.042 68.123,122.554 67.287,122.972C66.45,123.391 65.599,123.6 64.733,123.6C64.358,123.6 64.023,123.517 63.727,123.351C63.431,123.185 63.175,122.987 62.959,122.756C62.743,122.525 62.577,122.28 62.461,122.02C62.346,121.761 62.288,121.537 62.288,121.35C62.288,121.205 62.346,121.04 62.461,120.852C62.577,120.664 62.779,120.426 63.067,120.138C63.212,119.994 63.363,119.619 63.522,119.013C63.825,117.7 64.135,116.597 64.452,115.702C64.769,114.808 65.116,114.058 65.491,113.452C65.577,113.308 65.747,113.167 65.999,113.03C66.252,112.893 66.54,112.767 66.865,112.651C67.189,112.536 67.525,112.442 67.871,112.37C68.217,112.298 68.52,112.262 68.78,112.262C68.981,112.262 69.111,112.298 69.169,112.37C69.227,112.442 69.198,112.536 69.082,112.651C67.063,114.873 65.801,117.044 65.296,119.164C66.248,118.198 67.124,117.473 67.925,116.99C68.725,116.506 69.357,116.265 69.818,116.265C70.006,116.265 70.215,116.308 70.446,116.395C70.676,116.481 70.889,116.6 71.084,116.752C71.279,116.903 71.441,117.073 71.571,117.26C71.701,117.448 71.766,117.642 71.766,117.844ZM68.758,117.715C68.426,117.844 68.055,118.054 67.644,118.342C67.232,118.631 66.832,118.941 66.443,119.272C66.053,119.604 65.7,119.94 65.382,120.279C65.065,120.618 64.834,120.902 64.69,121.133C64.589,121.292 64.542,121.422 64.549,121.523C64.557,121.624 64.618,121.732 64.733,121.847C64.95,122.064 65.144,122.237 65.318,122.367C65.491,122.496 65.693,122.612 65.923,122.713C66.962,122.107 67.766,121.451 68.336,120.744C68.906,120.037 69.306,119.208 69.537,118.255L68.758,117.715Z" style="fill:white;fill-rule:nonzero;"/>
    <path d="M77.586,113.733C77.644,113.935 77.662,114.249 77.64,114.675C77.618,115.1 77.55,115.659 77.435,116.351C77.391,116.64 77.319,116.946 77.218,117.271C77.117,117.596 76.998,117.913 76.861,118.223C76.724,118.533 76.565,118.825 76.385,119.099C76.205,119.373 76.014,119.604 75.812,119.792C75.595,120.008 75.53,119.914 75.617,119.51C75.675,119.193 75.707,118.84 75.714,118.45C75.722,118.061 75.704,117.679 75.66,117.303C75.617,116.928 75.552,116.568 75.466,116.222C75.379,115.875 75.271,115.572 75.141,115.313C74.982,115.01 74.885,114.736 74.849,114.491C74.813,114.245 74.816,114.007 74.86,113.777C74.946,113.344 75.365,113.127 76.115,113.127C76.995,113.127 77.485,113.329 77.586,113.733ZM77.37,122.41C77.153,122.612 76.908,122.767 76.634,122.875C76.36,122.983 76.093,123.037 75.833,123.037C75.502,123.037 75.202,122.936 74.935,122.734C74.669,122.532 74.535,122.287 74.535,121.999C74.535,121.797 74.64,121.595 74.849,121.393C75.058,121.191 75.292,121.09 75.552,121.09C76.043,121.09 76.403,121.249 76.634,121.566C76.749,121.71 76.865,121.836 76.98,121.945C77.096,122.053 77.225,122.136 77.37,122.194C77.442,122.222 77.478,122.248 77.478,122.269C77.478,122.291 77.442,122.338 77.37,122.41Z" style="fill:white;fill-rule:nonzero;"/>
    <path d="M92.213,111.505C90.366,112.529 89.065,113.715 88.307,115.064C87.55,116.413 87.236,117.938 87.366,119.64C87.424,120.347 87.586,121.032 87.853,121.696C88.12,122.359 88.462,123.001 88.881,123.622L87.388,123.405C86.811,122.67 86.371,121.905 86.068,121.112C85.765,120.318 85.577,119.438 85.505,118.472C85.39,117.073 85.559,115.789 86.014,114.62C86.468,113.452 87.114,112.536 87.95,111.872C88.253,111.627 88.502,111.436 88.697,111.299C88.892,111.162 89.065,111.061 89.216,110.996C89.368,110.931 89.508,110.899 89.638,110.899C89.768,110.899 89.919,110.92 90.092,110.964C90.511,111.05 90.875,111.137 91.185,111.223C91.495,111.31 91.838,111.404 92.213,111.505Z" style="fill:white;fill-rule:nonzero;"/>
    <path d="M104.525,114.426C103.774,114.945 103.053,115.479 102.361,116.027C101.668,116.575 100.976,117.152 100.284,117.758C99.591,118.364 98.884,119.009 98.163,119.694C97.442,120.38 96.677,121.119 95.87,121.912C96.403,121.797 96.966,121.707 97.557,121.642C98.149,121.577 98.733,121.541 99.31,121.534C99.887,121.526 100.442,121.544 100.976,121.588C101.51,121.631 101.986,121.696 102.404,121.782L101.409,123.535C100.543,123.463 99.79,123.409 99.148,123.373C98.506,123.337 97.922,123.326 97.395,123.34C96.869,123.355 96.382,123.394 95.935,123.459C95.487,123.524 95.026,123.622 94.55,123.751L93.511,122.388C93.338,122.157 93.266,121.974 93.295,121.836C93.324,121.699 93.482,121.537 93.771,121.35C94.607,120.787 95.422,120.199 96.216,119.586C97.009,118.973 97.738,118.375 98.401,117.79C99.065,117.206 99.642,116.651 100.132,116.124C100.623,115.598 100.998,115.14 101.257,114.75C100.666,114.866 100.093,114.956 99.537,115.021C98.982,115.086 98.455,115.125 97.958,115.14C97.46,115.154 97.002,115.147 96.584,115.118C96.165,115.089 95.812,115.032 95.523,114.945L96.367,113.106C97.752,113.322 99.086,113.416 100.37,113.387C101.654,113.358 102.996,113.2 104.395,112.911L105.001,112.911L104.525,114.426Z" style="fill:white;fill-rule:nonzero;"/>
    <path d="M112.79,116.178C112.905,117.578 112.74,118.865 112.292,120.041C111.845,121.216 111.196,122.129 110.345,122.778C110.042,123.023 109.793,123.214 109.599,123.351C109.404,123.488 109.231,123.589 109.079,123.654C108.928,123.719 108.787,123.751 108.657,123.751C108.528,123.751 108.376,123.73 108.203,123.686C107.785,123.6 107.42,123.513 107.11,123.427C106.8,123.34 106.458,123.247 106.082,123.146C107.929,122.121 109.231,120.935 109.988,119.586C110.745,118.237 111.059,116.712 110.929,115.01C110.872,114.303 110.709,113.618 110.442,112.954C110.176,112.291 109.833,111.649 109.415,111.029L110.908,111.245C111.485,111.981 111.925,112.745 112.228,113.539C112.53,114.332 112.718,115.212 112.79,116.178Z" style="fill:white;fill-rule:nonzero;"/>
    <path d="M176.671,116.827C176.166,117.058 175.68,117.231 175.211,117.347C174.742,117.462 174.255,117.556 173.75,117.628L174.962,118.191C174.717,118.407 174.508,118.631 174.334,118.861C174.161,119.092 174.017,119.352 173.902,119.64C173.786,119.929 173.689,120.253 173.61,120.614C173.53,120.975 173.469,121.4 173.426,121.891L171.002,122.41C171.074,122.02 171.165,121.663 171.273,121.339C171.381,121.014 171.543,120.664 171.76,120.289C171.269,120.592 170.833,120.859 170.451,121.09C170.068,121.321 169.711,121.516 169.38,121.674C169.048,121.833 168.738,121.952 168.449,122.031C168.161,122.111 167.872,122.15 167.584,122.15C167.209,122.15 166.837,122.028 166.469,121.782C166.101,121.537 165.773,121.249 165.485,120.917C165.196,120.585 164.958,120.239 164.771,119.878C164.583,119.518 164.489,119.215 164.489,118.97C164.489,118.652 164.551,118.288 164.673,117.877C164.796,117.466 164.947,117.055 165.128,116.644C165.308,116.232 165.51,115.843 165.734,115.475C165.957,115.107 166.17,114.808 166.372,114.577C167.266,113.481 168.197,112.684 169.163,112.186C170.13,111.689 171.255,111.44 172.539,111.44C172.87,111.44 173.213,111.487 173.566,111.58C173.92,111.674 174.27,111.8 174.616,111.959C174.962,112.118 175.297,112.302 175.622,112.511C175.946,112.72 176.246,112.94 176.52,113.171L174.832,114.361C174.313,114 173.772,113.694 173.209,113.441C172.647,113.189 171.962,112.947 171.154,112.716C170.779,112.933 170.382,113.261 169.964,113.701C169.545,114.141 169.145,114.642 168.763,115.205C168.381,115.767 168.038,116.373 167.735,117.022C167.432,117.671 167.201,118.32 167.043,118.97C167.086,119.143 167.169,119.33 167.292,119.532C167.414,119.734 167.562,119.922 167.735,120.095C167.908,120.268 168.088,120.412 168.276,120.527C168.464,120.643 168.644,120.701 168.817,120.701C169.048,120.701 169.372,120.614 169.791,120.441C170.209,120.268 170.634,120.044 171.067,119.77C171.5,119.496 171.893,119.182 172.246,118.829C172.6,118.475 172.827,118.111 172.928,117.736C172.063,117.852 171.33,117.895 170.732,117.866C170.133,117.837 169.726,117.779 169.509,117.693L170.634,116.222C171.471,116.38 172.42,116.434 173.48,116.384C174.54,116.333 175.676,116.178 176.888,115.919L176.671,116.827Z" style="fill:white;fill-rule:nonzero;"/>
    <path d="M185.543,115.161C185.427,115.392 185.326,115.59 185.24,115.756C185.153,115.922 185.074,116.081 185.002,116.232C184.93,116.384 184.857,116.539 184.785,116.698C184.713,116.856 184.634,117.037 184.547,117.239L182.925,117.044C182.766,117.13 182.596,117.278 182.416,117.487C182.236,117.697 182.066,117.938 181.908,118.212C181.749,118.486 181.605,118.775 181.475,119.078C181.345,119.381 181.251,119.669 181.194,119.943C181.078,120.463 180.97,120.884 180.869,121.209C180.768,121.534 180.667,121.786 180.566,121.966C180.465,122.147 180.364,122.269 180.263,122.334C180.162,122.399 180.061,122.432 179.96,122.432C179.874,122.432 179.755,122.363 179.603,122.226C179.452,122.089 179.304,121.93 179.16,121.75C179.015,121.57 178.889,121.382 178.781,121.187C178.673,120.993 178.619,120.83 178.619,120.701C178.619,120.455 178.669,120.232 178.77,120.03C178.871,119.828 179.066,119.554 179.354,119.208C179.47,119.078 179.553,118.908 179.603,118.699C179.654,118.49 179.679,118.176 179.679,117.758C179.679,117.138 179.665,116.6 179.636,116.146C179.607,115.691 179.571,115.327 179.527,115.053L181.734,114.512C181.807,115.479 181.734,116.416 181.518,117.325C181.85,116.806 182.149,116.377 182.416,116.038C182.683,115.699 182.932,115.428 183.163,115.226C183.393,115.024 183.61,114.88 183.812,114.794C184.014,114.707 184.216,114.664 184.418,114.664C184.547,114.664 184.717,114.707 184.926,114.794C185.135,114.88 185.341,115.003 185.543,115.161Z" style="fill:white;fill-rule:nonzero;"/>
    <path d="M196.253,117.152C196.369,117.368 196.419,117.527 196.405,117.628C196.39,117.729 196.318,117.852 196.188,117.996C195.9,118.299 195.673,118.548 195.507,118.742C195.341,118.937 195.218,119.096 195.139,119.218C195.06,119.341 195.009,119.438 194.987,119.51C194.966,119.583 194.955,119.64 194.955,119.684C194.955,120.03 195.016,120.416 195.139,120.841C195.261,121.267 195.438,121.624 195.669,121.912L193.787,122.194C193.599,121.948 193.455,121.678 193.354,121.382C193.253,121.086 193.188,120.708 193.159,120.246C192.596,120.636 192.11,120.96 191.699,121.22C191.287,121.479 190.93,121.685 190.627,121.836C190.325,121.988 190.058,122.093 189.827,122.15C189.596,122.208 189.373,122.237 189.156,122.237C188.94,122.237 188.705,122.186 188.453,122.085C188.2,121.984 187.973,121.855 187.771,121.696C187.569,121.537 187.4,121.364 187.263,121.177C187.126,120.989 187.057,120.809 187.057,120.636C187.057,120.333 187.209,120.001 187.512,119.64C187.815,119.28 188.258,118.912 188.842,118.537C189.427,118.162 190.151,117.79 191.017,117.422C191.882,117.055 192.878,116.712 194.003,116.395C193.397,116.193 192.676,116.103 191.839,116.124C191.003,116.146 190.065,116.301 189.026,116.589L189.178,115.616C190.058,115.327 190.927,115.165 191.785,115.129C192.643,115.093 193.375,115.14 193.981,115.27C194.327,115.342 194.609,115.425 194.825,115.518C195.042,115.612 195.229,115.735 195.388,115.886C195.546,116.038 195.691,116.214 195.82,116.416C195.95,116.618 196.095,116.863 196.253,117.152ZM193.743,117.26C192.344,117.794 191.284,118.346 190.563,118.915C189.841,119.485 189.336,120.08 189.048,120.701L189.892,121.155C190.44,120.939 191.006,120.664 191.59,120.333C192.175,120.001 192.697,119.64 193.159,119.251C193.231,119.049 193.35,118.818 193.516,118.558C193.682,118.299 193.931,117.953 194.263,117.52L193.743,117.26Z" style="fill:white;fill-rule:nonzero;"/>
    <path d="M207.613,116.481C207.613,116.957 207.407,117.523 206.996,118.18C206.585,118.836 206.048,119.467 205.384,120.073C204.721,120.679 203.971,121.191 203.134,121.609C202.297,122.028 201.446,122.237 200.581,122.237C200.206,122.237 199.87,122.154 199.575,121.988C199.279,121.822 199.023,121.624 198.806,121.393C198.59,121.162 198.424,120.917 198.309,120.657C198.193,120.398 198.136,120.174 198.136,119.986C198.136,119.842 198.193,119.676 198.309,119.489C198.424,119.301 198.626,119.063 198.915,118.775C199.059,118.631 199.21,118.255 199.369,117.65C199.672,116.337 199.982,115.233 200.299,114.339C200.617,113.445 200.963,112.695 201.338,112.089C201.425,111.945 201.594,111.804 201.846,111.667C202.099,111.53 202.387,111.404 202.712,111.288C203.037,111.173 203.372,111.079 203.718,111.007C204.064,110.935 204.367,110.899 204.627,110.899C204.829,110.899 204.959,110.935 205.016,111.007C205.074,111.079 205.045,111.173 204.93,111.288C202.91,113.51 201.648,115.681 201.143,117.801C202.095,116.835 202.972,116.11 203.772,115.627C204.573,115.143 205.204,114.902 205.665,114.902C205.853,114.902 206.062,114.945 206.293,115.032C206.524,115.118 206.737,115.237 206.931,115.389C207.126,115.54 207.288,115.709 207.418,115.897C207.548,116.085 207.613,116.279 207.613,116.481ZM204.605,116.351C204.273,116.481 203.902,116.69 203.491,116.979C203.08,117.267 202.68,117.578 202.29,117.909C201.901,118.241 201.547,118.576 201.23,118.915C200.912,119.254 200.682,119.539 200.537,119.77C200.436,119.929 200.39,120.059 200.397,120.16C200.404,120.261 200.465,120.369 200.581,120.484C200.797,120.701 200.992,120.874 201.165,121.003C201.338,121.133 201.54,121.249 201.771,121.35C202.809,120.744 203.614,120.087 204.183,119.381C204.753,118.674 205.153,117.844 205.384,116.892L204.605,116.351Z" style="fill:white;fill-rule:nonzero;"/>
    <path d="M223.927,117.152C224.043,117.368 224.093,117.527 224.079,117.628C224.065,117.729 223.992,117.852 223.863,117.996C223.574,118.299 223.347,118.548 223.181,118.742C223.015,118.937 222.892,119.096 222.813,119.218C222.734,119.341 222.683,119.438 222.662,119.51C222.64,119.583 222.629,119.64 222.629,119.684C222.629,120.03 222.691,120.416 222.813,120.841C222.936,121.267 223.112,121.624 223.343,121.912L221.461,122.194C221.273,121.948 221.129,121.678 221.028,121.382C220.927,121.086 220.862,120.708 220.833,120.246C220.271,120.636 219.784,120.96 219.373,121.22C218.962,121.479 218.605,121.685 218.302,121.836C217.999,121.988 217.732,122.093 217.501,122.15C217.27,122.208 217.047,122.237 216.83,122.237C216.614,122.237 216.38,122.186 216.127,122.085C215.875,121.984 215.648,121.855 215.446,121.696C215.244,121.537 215.074,121.364 214.937,121.177C214.8,120.989 214.732,120.809 214.732,120.636C214.732,120.333 214.883,120.001 215.186,119.64C215.489,119.28 215.932,118.912 216.517,118.537C217.101,118.162 217.826,117.79 218.691,117.422C219.557,117.055 220.552,116.712 221.677,116.395C221.071,116.193 220.35,116.103 219.513,116.124C218.677,116.146 217.739,116.301 216.701,116.589L216.852,115.616C217.732,115.327 218.601,115.165 219.459,115.129C220.318,115.093 221.05,115.14 221.656,115.27C222.002,115.342 222.283,115.425 222.499,115.518C222.716,115.612 222.903,115.735 223.062,115.886C223.221,116.038 223.365,116.214 223.495,116.416C223.625,116.618 223.769,116.863 223.927,117.152ZM221.418,117.26C220.018,117.794 218.958,118.346 218.237,118.915C217.516,119.485 217.011,120.08 216.722,120.701L217.566,121.155C218.114,120.939 218.68,120.664 219.265,120.333C219.849,120.001 220.372,119.64 220.833,119.251C220.905,119.049 221.024,118.818 221.19,118.558C221.356,118.299 221.605,117.953 221.937,117.52L221.418,117.26Z" style="fill:white;fill-rule:nonzero;"/>
    <path d="M236.542,122.237C236.484,122.626 236.282,123.041 235.936,123.481C235.59,123.921 235.118,124.332 234.519,124.714C233.92,125.097 233.206,125.414 232.377,125.666C231.547,125.919 230.628,126.045 229.618,126.045C229.2,126.045 228.836,126.02 228.525,125.969C228.215,125.919 227.887,125.821 227.541,125.677C227.411,125.619 227.252,125.482 227.065,125.266C226.877,125.05 226.697,124.794 226.524,124.498C226.351,124.202 226.196,123.885 226.059,123.546C225.922,123.207 225.839,122.886 225.81,122.583L228.017,122.778C228.104,123.109 228.215,123.373 228.352,123.567C228.489,123.762 228.673,124.004 228.904,124.292C229.019,124.451 229.395,124.53 230.029,124.53C230.39,124.53 230.7,124.52 230.96,124.498C231.219,124.476 231.475,124.433 231.728,124.368C231.98,124.303 232.251,124.217 232.539,124.108C232.828,124 233.188,123.86 233.621,123.686L234.378,122.691C233.47,122.331 232.637,122.103 231.879,122.01C231.122,121.916 230.433,121.927 229.813,122.042C229.265,122.129 228.872,122.15 228.634,122.107C228.396,122.064 228.219,121.984 228.104,121.869C228.017,121.782 227.963,121.667 227.941,121.523C227.92,121.379 227.938,121.249 227.995,121.133C228.067,120.989 228.19,120.87 228.363,120.776C228.536,120.682 228.789,120.65 229.12,120.679C229.351,120.708 229.596,120.592 229.856,120.333C229.568,120.203 229.283,120.044 229.001,119.857C228.72,119.669 228.464,119.474 228.233,119.272C228.003,119.071 227.815,118.872 227.671,118.677C227.527,118.483 227.454,118.32 227.454,118.191C227.454,117.729 227.552,117.307 227.746,116.925C227.941,116.543 228.269,116.193 228.731,115.875C229.12,115.587 229.636,115.378 230.278,115.248C230.92,115.118 231.767,115.053 232.82,115.053C233.022,115.053 233.185,115.057 233.307,115.064C233.43,115.071 233.535,115.096 233.621,115.14C233.708,115.183 233.78,115.241 233.837,115.313C233.895,115.385 233.96,115.486 234.032,115.616C234.667,115.443 235.107,115.331 235.352,115.28C235.597,115.23 235.785,115.205 235.915,115.205C236.189,115.205 236.326,115.342 236.326,115.616C236.326,116.222 236.012,116.892 235.385,117.628C234.757,118.364 233.809,119.099 232.539,119.835C232.381,119.922 232.207,120.041 232.02,120.192C231.832,120.344 231.609,120.52 231.349,120.722C231.868,120.708 232.305,120.708 232.658,120.722C233.012,120.737 233.347,120.78 233.664,120.852C234.357,120.982 234.898,121.101 235.287,121.209C235.677,121.317 235.969,121.422 236.163,121.523C236.358,121.624 236.474,121.732 236.51,121.847C236.546,121.963 236.557,122.093 236.542,122.237ZM233.708,116.654C233.477,116.625 233.282,116.611 233.123,116.611L232.712,116.611C231.717,116.611 230.96,116.712 230.44,116.914C229.921,117.116 229.661,117.34 229.661,117.585C229.661,118.191 230.188,118.739 231.241,119.229C232.02,118.811 232.6,118.403 232.983,118.007C233.365,117.61 233.607,117.159 233.708,116.654Z" style="fill:white;fill-rule:nonzero;"/>
    <path d="M247.491,117.152C247.606,117.368 247.657,117.527 247.642,117.628C247.628,117.729 247.556,117.852 247.426,117.996C247.137,118.299 246.91,118.548 246.744,118.742C246.578,118.937 246.456,119.096 246.376,119.218C246.297,119.341 246.246,119.438 246.225,119.51C246.203,119.583 246.192,119.64 246.192,119.684C246.192,120.03 246.254,120.416 246.376,120.841C246.499,121.267 246.676,121.624 246.906,121.912L245.024,122.194C244.836,121.948 244.692,121.678 244.591,121.382C244.49,121.086 244.425,120.708 244.396,120.246C243.834,120.636 243.347,120.96 242.936,121.22C242.525,121.479 242.168,121.685 241.865,121.836C241.562,121.988 241.295,122.093 241.064,122.15C240.834,122.208 240.61,122.237 240.394,122.237C240.177,122.237 239.943,122.186 239.69,122.085C239.438,121.984 239.211,121.855 239.009,121.696C238.807,121.537 238.637,121.364 238.5,121.177C238.363,120.989 238.295,120.809 238.295,120.636C238.295,120.333 238.446,120.001 238.749,119.64C239.052,119.28 239.496,118.912 240.08,118.537C240.664,118.162 241.389,117.79 242.254,117.422C243.12,117.055 244.115,116.712 245.24,116.395C244.635,116.193 243.913,116.103 243.077,116.124C242.24,116.146 241.302,116.301 240.264,116.589L240.415,115.616C241.295,115.327 242.164,115.165 243.023,115.129C243.881,115.093 244.613,115.14 245.219,115.27C245.565,115.342 245.846,115.425 246.063,115.518C246.279,115.612 246.466,115.735 246.625,115.886C246.784,116.038 246.928,116.214 247.058,116.416C247.188,116.618 247.332,116.863 247.491,117.152ZM244.981,117.26C243.581,117.794 242.521,118.346 241.8,118.915C241.079,119.485 240.574,120.08 240.285,120.701L241.129,121.155C241.677,120.939 242.244,120.664 242.828,120.333C243.412,120.001 243.935,119.64 244.396,119.251C244.469,119.049 244.588,118.818 244.754,118.558C244.919,118.299 245.168,117.953 245.5,117.52L244.981,117.26Z" style="fill:white;fill-rule:nonzero;"/>
    <path d="M254.48,114.036C253.903,114.152 253.419,114.209 253.03,114.209C252.568,114.209 252.182,114.144 251.872,114.015C251.562,113.885 251.407,113.704 251.407,113.474C251.407,113.329 251.468,113.189 251.591,113.052C251.714,112.915 251.869,112.788 252.056,112.673C252.244,112.558 252.456,112.464 252.694,112.392C252.932,112.32 253.16,112.284 253.376,112.284C253.564,112.284 253.708,112.309 253.809,112.359C253.91,112.41 253.96,112.536 253.96,112.738L253.96,113.084C253.96,113.2 254.007,113.347 254.101,113.528C254.195,113.708 254.321,113.878 254.48,114.036ZM253.571,115.334C252.878,116.373 252.37,117.44 252.045,118.537C251.721,119.633 251.522,120.751 251.45,121.891L248.94,122.41C249.085,121.184 249.312,120.048 249.622,119.002C249.932,117.956 250.376,116.9 250.953,115.832L253.571,115.334Z" style="fill:white;fill-rule:nonzero;"/>
    <path d="M265.082,116.005C265.082,116.164 265.01,116.38 264.866,116.654C264.447,117.433 264.115,118.223 263.87,119.024C263.625,119.824 263.466,120.679 263.394,121.588L261.057,122.15C261.216,121.155 261.468,120.188 261.815,119.251C262.161,118.313 262.565,117.52 263.026,116.871L262.507,116.33C261.988,116.503 261.501,116.723 261.046,116.99C260.592,117.257 260.192,117.538 259.846,117.834C259.499,118.129 259.222,118.414 259.013,118.688C258.803,118.962 258.677,119.193 258.634,119.381C258.504,120.001 258.374,120.502 258.244,120.884C258.115,121.267 257.988,121.559 257.866,121.761C257.743,121.963 257.628,122.089 257.52,122.139C257.411,122.19 257.307,122.194 257.206,122.15C256.86,122.006 256.589,121.84 256.394,121.653C256.2,121.465 255.994,121.213 255.778,120.895C255.561,120.621 255.626,120.354 255.973,120.095C256.16,119.95 256.319,119.803 256.449,119.651C256.578,119.5 256.679,119.319 256.751,119.11C256.824,118.901 256.874,118.649 256.903,118.353C256.932,118.057 256.946,117.693 256.946,117.26C256.946,116.741 256.943,116.355 256.935,116.103C256.928,115.85 256.91,115.623 256.881,115.421L259.153,114.988C259.182,115.392 259.186,115.782 259.164,116.157C259.142,116.532 259.074,116.943 258.958,117.39C259.261,117.073 259.633,116.77 260.073,116.481C260.513,116.193 260.964,115.937 261.425,115.713C261.887,115.49 262.334,115.313 262.767,115.183C263.199,115.053 263.56,114.988 263.849,114.988C263.921,114.988 264.025,115.028 264.162,115.107C264.299,115.187 264.436,115.284 264.573,115.399C264.71,115.515 264.829,115.63 264.93,115.746C265.031,115.861 265.082,115.948 265.082,116.005Z" style="fill:white;fill-rule:nonzero;"/>
    <path d="M339.511,135.154C338.241,136.972 337.325,138.602 336.763,140.044C336.2,141.487 335.904,142.749 335.875,143.831C335.861,144.163 335.861,144.43 335.875,144.631C335.89,144.833 335.911,145.093 335.94,145.41L333.214,146.016C333.214,145.107 333.286,144.195 333.43,143.279C333.575,142.363 333.813,141.472 334.144,140.607C333.322,140.607 332.55,140.654 331.829,140.748C331.108,140.841 330.48,140.968 329.947,141.126C329.702,141.775 329.442,142.396 329.168,142.987C328.894,143.578 328.616,144.098 328.335,144.545C328.054,144.992 327.776,145.349 327.502,145.616C327.228,145.883 326.975,146.016 326.744,146.016C326.571,146.016 326.409,145.955 326.258,145.832C326.106,145.71 325.973,145.555 325.857,145.367C325.742,145.18 325.652,144.978 325.587,144.761C325.522,144.545 325.489,144.343 325.489,144.155C325.489,144.026 325.544,143.86 325.652,143.658C325.76,143.456 325.901,143.236 326.074,142.998C326.247,142.76 326.452,142.522 326.69,142.284C326.928,142.046 327.177,141.826 327.437,141.624C327.581,141.508 327.722,141.314 327.859,141.04C327.996,140.766 328.118,140.394 328.227,139.925C328.335,139.457 328.421,138.883 328.486,138.205C328.551,137.527 328.584,136.734 328.584,135.825L331.31,135.284C331.238,135.976 331.104,136.755 330.91,137.621C330.715,138.486 330.495,139.33 330.25,140.153C330.812,139.951 331.436,139.777 332.121,139.633C332.807,139.489 333.647,139.345 334.642,139.2C334.786,138.854 334.923,138.537 335.053,138.248C335.183,137.96 335.313,137.686 335.443,137.426C335.573,137.167 335.71,136.911 335.854,136.658C335.998,136.406 336.157,136.128 336.33,135.825L339.511,135.154Z" style="fill:white;fill-rule:nonzero;"/>
    <path d="M354.765,139.438C354.88,139.583 354.927,139.749 354.906,139.936C354.884,140.124 354.75,140.448 354.505,140.91C353.871,142.165 353.51,143.615 353.423,145.259L350.978,145.8C351.007,145.425 351.072,145.017 351.173,144.577C351.274,144.137 351.407,143.69 351.573,143.236C351.739,142.781 351.934,142.331 352.158,141.884C352.381,141.436 352.63,141.018 352.904,140.629L352.428,140.174C352.082,140.189 351.7,140.326 351.281,140.585C350.863,140.845 350.463,141.162 350.08,141.537C349.698,141.912 349.363,142.32 349.074,142.76C348.786,143.2 348.605,143.615 348.533,144.004C348.404,144.682 348.252,145.136 348.079,145.367C347.906,145.598 347.697,145.713 347.451,145.713C347.307,145.713 347.152,145.656 346.986,145.54C346.82,145.425 346.665,145.281 346.521,145.107C346.377,144.934 346.258,144.758 346.164,144.577C346.07,144.397 346.023,144.242 346.023,144.112C346.023,143.997 346.07,143.849 346.164,143.669C346.258,143.488 346.471,143.218 346.802,142.857C347.12,142.525 347.369,142.197 347.549,141.873C347.729,141.548 347.899,141.148 348.057,140.672L347.516,140.066C346.434,140.369 345.58,140.827 344.952,141.44C344.325,142.053 343.896,142.857 343.665,143.853C343.564,144.285 343.477,144.628 343.405,144.88C343.333,145.133 343.254,145.327 343.167,145.465C343.081,145.602 342.983,145.692 342.875,145.735C342.767,145.778 342.626,145.8 342.453,145.8C342.323,145.8 342.179,145.742 342.02,145.627C341.862,145.511 341.707,145.374 341.555,145.216C341.404,145.057 341.278,144.895 341.177,144.729C341.076,144.563 341.025,144.422 341.025,144.307C341.025,144.177 341.054,144.033 341.112,143.874C341.169,143.715 341.299,143.535 341.501,143.333C341.703,143.102 341.865,142.882 341.988,142.673C342.111,142.464 342.204,142.212 342.269,141.916C342.334,141.62 342.37,141.252 342.377,140.812C342.385,140.372 342.367,139.806 342.323,139.114L344.444,138.595L344.444,139.287C344.444,139.619 344.429,139.911 344.401,140.163C344.372,140.416 344.328,140.686 344.271,140.975C344.675,140.6 345.093,140.268 345.526,139.979C345.958,139.691 346.377,139.449 346.781,139.255C347.185,139.06 347.563,138.912 347.917,138.811C348.27,138.71 348.569,138.66 348.815,138.66C348.916,138.66 349.038,138.688 349.182,138.746C349.327,138.804 349.464,138.876 349.594,138.962C349.723,139.049 349.832,139.139 349.918,139.233C350.005,139.327 350.048,139.417 350.048,139.503C350.048,139.691 350.041,139.882 350.026,140.077C350.012,140.272 349.969,140.455 349.896,140.629C350.214,140.34 350.549,140.07 350.903,139.817C351.256,139.565 351.599,139.348 351.93,139.168C352.262,138.988 352.58,138.847 352.882,138.746C353.185,138.645 353.459,138.595 353.705,138.595C353.82,138.595 353.964,138.652 354.137,138.768C354.311,138.883 354.52,139.107 354.765,139.438Z" style="fill:white;fill-rule:nonzero;"/>
    <path d="M370.365,139.438C370.481,139.583 370.528,139.749 370.506,139.936C370.485,140.124 370.351,140.448 370.106,140.91C369.471,142.165 369.111,143.615 369.024,145.259L366.579,145.8C366.608,145.425 366.673,145.017 366.774,144.577C366.875,144.137 367.008,143.69 367.174,143.236C367.34,142.781 367.535,142.331 367.758,141.884C367.982,141.436 368.231,141.018 368.505,140.629L368.029,140.174C367.682,140.189 367.3,140.326 366.882,140.585C366.464,140.845 366.063,141.162 365.681,141.537C365.299,141.912 364.963,142.32 364.675,142.76C364.386,143.2 364.206,143.615 364.134,144.004C364.004,144.682 363.853,145.136 363.68,145.367C363.506,145.598 363.297,145.713 363.052,145.713C362.908,145.713 362.753,145.656 362.587,145.54C362.421,145.425 362.266,145.281 362.122,145.107C361.977,144.934 361.858,144.758 361.765,144.577C361.671,144.397 361.624,144.242 361.624,144.112C361.624,143.997 361.671,143.849 361.765,143.669C361.858,143.488 362.071,143.218 362.403,142.857C362.72,142.525 362.969,142.197 363.149,141.873C363.33,141.548 363.499,141.148 363.658,140.672L363.117,140.066C362.035,140.369 361.18,140.827 360.553,141.44C359.925,142.053 359.496,142.857 359.265,143.853C359.165,144.285 359.078,144.628 359.006,144.88C358.934,145.133 358.854,145.327 358.768,145.465C358.681,145.602 358.584,145.692 358.476,145.735C358.368,145.778 358.227,145.8 358.054,145.8C357.924,145.8 357.78,145.742 357.621,145.627C357.462,145.511 357.307,145.374 357.156,145.216C357.004,145.057 356.878,144.895 356.777,144.729C356.676,144.563 356.626,144.422 356.626,144.307C356.626,144.177 356.655,144.033 356.712,143.874C356.77,143.715 356.9,143.535 357.102,143.333C357.304,143.102 357.466,142.882 357.589,142.673C357.711,142.464 357.805,142.212 357.87,141.916C357.935,141.62 357.971,141.252 357.978,140.812C357.985,140.372 357.967,139.806 357.924,139.114L360.044,138.595L360.044,139.287C360.044,139.619 360.03,139.911 360.001,140.163C359.972,140.416 359.929,140.686 359.871,140.975C360.275,140.6 360.694,140.268 361.126,139.979C361.559,139.691 361.977,139.449 362.381,139.255C362.785,139.06 363.164,138.912 363.517,138.811C363.871,138.71 364.17,138.66 364.415,138.66C364.516,138.66 364.639,138.688 364.783,138.746C364.927,138.804 365.064,138.876 365.194,138.962C365.324,139.049 365.432,139.139 365.519,139.233C365.605,139.327 365.649,139.417 365.649,139.503C365.649,139.691 365.641,139.882 365.627,140.077C365.612,140.272 365.569,140.455 365.497,140.629C365.814,140.34 366.15,140.07 366.503,139.817C366.857,139.565 367.199,139.348 367.531,139.168C367.863,138.988 368.18,138.847 368.483,138.746C368.786,138.645 369.06,138.595 369.305,138.595C369.421,138.595 369.565,138.652 369.738,138.768C369.911,138.883 370.12,139.107 370.365,139.438Z" style="fill:white;fill-rule:nonzero;"/>
    <path d="M375.623,144.199C375.811,144.256 375.912,144.347 375.926,144.469C375.941,144.592 375.833,144.783 375.602,145.043C375.169,145.533 374.549,145.778 373.741,145.778C373.351,145.778 373.049,145.659 372.832,145.421C372.616,145.183 372.508,144.898 372.508,144.567C372.508,144.235 372.619,143.928 372.843,143.647C373.067,143.366 373.344,143.196 373.676,143.138C373.878,143.11 374.058,143.131 374.217,143.203C374.376,143.276 374.556,143.42 374.758,143.636C375.046,143.925 375.335,144.112 375.623,144.199Z" style="fill:white;fill-rule:nonzero;"/>
    <path d="M381.033,144.199C381.22,144.256 381.321,144.347 381.336,144.469C381.35,144.592 381.242,144.783 381.011,145.043C380.578,145.533 379.958,145.778 379.15,145.778C378.761,145.778 378.458,145.659 378.242,145.421C378.025,145.183 377.917,144.898 377.917,144.567C377.917,144.235 378.029,143.928 378.252,143.647C378.476,143.366 378.754,143.196 379.085,143.138C379.287,143.11 379.468,143.131 379.626,143.203C379.785,143.276 379.965,143.42 380.167,143.636C380.456,143.925 380.744,144.112 381.033,144.199Z" style="fill:white;fill-rule:nonzero;"/>
    <path d="M386.442,144.199C386.63,144.256 386.731,144.347 386.745,144.469C386.759,144.592 386.651,144.783 386.42,145.043C385.988,145.533 385.367,145.778 384.56,145.778C384.17,145.778 383.867,145.659 383.651,145.421C383.435,145.183 383.326,144.898 383.326,144.567C383.326,144.235 383.438,143.928 383.662,143.647C383.885,143.366 384.163,143.196 384.495,143.138C384.697,143.11 384.877,143.131 385.036,143.203C385.194,143.276 385.375,143.42 385.577,143.636C385.865,143.925 386.154,144.112 386.442,144.199Z" style="fill:white;fill-rule:nonzero;"/>
    <path d="M361.671,219.65C361.166,219.88 360.68,220.054 360.211,220.169C359.742,220.284 359.255,220.378 358.75,220.45L359.962,221.013C359.717,221.229 359.508,221.453 359.334,221.684C359.161,221.914 359.017,222.174 358.902,222.463C358.786,222.751 358.689,223.076 358.61,223.436C358.53,223.797 358.469,224.222 358.426,224.713L356.002,225.232C356.074,224.843 356.165,224.486 356.273,224.161C356.381,223.836 356.543,223.487 356.76,223.112C356.269,223.415 355.833,223.681 355.451,223.912C355.068,224.143 354.711,224.338 354.38,224.496C354.048,224.655 353.738,224.774 353.449,224.853C353.161,224.933 352.872,224.972 352.584,224.972C352.209,224.972 351.837,224.85 351.469,224.605C351.101,224.359 350.773,224.071 350.485,223.739C350.196,223.407 349.958,223.061 349.771,222.701C349.583,222.34 349.489,222.037 349.489,221.792C349.489,221.474 349.551,221.11 349.673,220.699C349.796,220.288 349.947,219.877 350.128,219.466C350.308,219.055 350.51,218.665 350.734,218.297C350.957,217.929 351.17,217.63 351.372,217.399C352.266,216.303 353.197,215.506 354.163,215.008C355.13,214.511 356.255,214.262 357.539,214.262C357.87,214.262 358.213,214.309 358.566,214.403C358.92,214.496 359.27,214.623 359.616,214.781C359.962,214.94 360.297,215.124 360.622,215.333C360.946,215.542 361.246,215.762 361.52,215.993L359.832,217.183C359.313,216.822 358.772,216.516 358.209,216.263C357.647,216.011 356.962,215.769 356.154,215.539C355.779,215.755 355.382,216.083 354.964,216.523C354.545,216.963 354.145,217.464 353.763,218.027C353.381,218.589 353.038,219.195 352.735,219.844C352.432,220.494 352.201,221.143 352.043,221.792C352.086,221.965 352.169,222.152 352.292,222.354C352.414,222.556 352.562,222.744 352.735,222.917C352.908,223.09 353.088,223.234 353.276,223.35C353.464,223.465 353.644,223.523 353.817,223.523C354.048,223.523 354.372,223.436 354.791,223.263C355.209,223.09 355.634,222.866 356.067,222.592C356.5,222.318 356.893,222.005 357.246,221.651C357.6,221.298 357.827,220.933 357.928,220.558C357.063,220.674 356.33,220.717 355.732,220.688C355.133,220.659 354.726,220.602 354.509,220.515L355.634,219.044C356.471,219.202 357.42,219.257 358.48,219.206C359.54,219.156 360.676,219.001 361.888,218.741L361.671,219.65Z" style="fill:white;fill-rule:nonzero;"/>
    <path d="M372.036,219.195C372.036,219.614 371.953,219.96 371.787,220.234C371.621,220.508 371.307,220.742 370.846,220.937C370.384,221.132 369.746,221.301 368.931,221.446C368.116,221.59 367.059,221.748 365.761,221.922C365.79,222.21 365.909,222.524 366.118,222.863C366.327,223.202 366.597,223.472 366.929,223.674C367.348,223.588 367.741,223.501 368.108,223.415C368.476,223.328 368.833,223.234 369.18,223.133C369.526,223.032 369.876,222.917 370.229,222.787C370.582,222.657 370.954,222.506 371.343,222.333L371.278,222.917C371.264,223.018 371.239,223.108 371.203,223.187C371.167,223.267 371.076,223.35 370.932,223.436C370.788,223.523 370.572,223.627 370.283,223.75C369.995,223.873 369.591,224.028 369.071,224.215C368.538,224.417 367.997,224.583 367.449,224.713C366.9,224.843 366.46,224.908 366.129,224.908C365.826,224.908 365.512,224.839 365.187,224.702C364.863,224.565 364.567,224.395 364.3,224.194C364.033,223.992 363.817,223.772 363.651,223.534C363.485,223.296 363.402,223.068 363.402,222.852C363.402,222.65 363.424,222.459 363.467,222.279C363.511,222.098 363.586,221.893 363.694,221.662C363.803,221.431 363.958,221.157 364.16,220.84C364.362,220.522 364.614,220.126 364.917,219.65C365.292,219.102 365.909,218.644 366.767,218.276C367.625,217.908 368.711,217.724 370.023,217.724C370.773,217.724 371.296,217.825 371.592,218.027C371.888,218.229 372.036,218.618 372.036,219.195ZM369.829,218.546L367.557,218.827C367.268,219.202 367.005,219.559 366.767,219.898C366.529,220.237 366.273,220.638 365.999,221.099C366.821,221.027 367.485,220.948 367.989,220.861C368.494,220.775 368.88,220.667 369.147,220.537C369.414,220.407 369.594,220.255 369.688,220.082C369.782,219.909 369.829,219.7 369.829,219.455L369.829,218.546Z" style="fill:white;fill-rule:nonzero;"/>
    <path d="M380.323,219.39L377.445,219.433C377.142,220.255 376.929,220.926 376.807,221.446C376.684,221.965 376.623,222.412 376.623,222.787L376.623,223.112C376.623,223.227 376.637,223.35 376.666,223.479L377.185,223.761C377.373,223.732 377.546,223.703 377.705,223.674C377.863,223.645 378.018,223.613 378.17,223.577C378.321,223.541 378.487,223.501 378.668,223.458C378.848,223.415 379.068,223.357 379.327,223.285C379.27,223.573 379.187,223.786 379.079,223.923C378.97,224.06 378.758,224.201 378.44,224.345C377.834,224.605 377.355,224.785 377.001,224.886C376.648,224.987 376.349,225.037 376.104,225.037C375.844,225.037 375.606,224.972 375.389,224.843C375.173,224.713 374.989,224.554 374.838,224.367C374.686,224.179 374.567,223.977 374.481,223.761C374.394,223.544 374.351,223.35 374.351,223.177C374.351,222.802 374.448,222.333 374.643,221.77C374.838,221.208 375.173,220.436 375.649,219.455L373.983,219.477L374.329,218.568L376.147,218.525L376.947,217.01L378.787,216.555L377.813,218.525L380.669,218.481L380.323,219.39Z" style="fill:white;fill-rule:nonzero;"/>
    <path d="M386.295,215.192C386.352,215.394 386.37,215.708 386.349,216.134C386.327,216.559 386.259,217.118 386.143,217.81C386.1,218.099 386.028,218.405 385.927,218.73C385.826,219.055 385.707,219.372 385.57,219.682C385.433,219.992 385.274,220.284 385.094,220.558C384.914,220.832 384.722,221.063 384.52,221.251C384.304,221.467 384.239,221.373 384.326,220.97C384.383,220.652 384.416,220.299 384.423,219.909C384.43,219.52 384.412,219.138 384.369,218.763C384.326,218.387 384.261,218.027 384.174,217.681C384.088,217.334 383.98,217.032 383.85,216.772C383.691,216.469 383.594,216.195 383.558,215.95C383.522,215.704 383.525,215.466 383.568,215.236C383.655,214.803 384.073,214.586 384.823,214.586C385.703,214.586 386.194,214.788 386.295,215.192ZM386.078,223.869C385.862,224.071 385.617,224.226 385.343,224.334C385.069,224.442 384.802,224.496 384.542,224.496C384.21,224.496 383.911,224.395 383.644,224.194C383.377,223.992 383.244,223.746 383.244,223.458C383.244,223.256 383.348,223.054 383.558,222.852C383.767,222.65 384.001,222.549 384.261,222.549C384.751,222.549 385.112,222.708 385.343,223.025C385.458,223.169 385.573,223.296 385.689,223.404C385.804,223.512 385.934,223.595 386.078,223.653C386.15,223.681 386.187,223.707 386.187,223.728C386.187,223.75 386.15,223.797 386.078,223.869Z" style="fill:white;fill-rule:nonzero;"/>
    <path d="M418.645,190.21L420.315,188.083L422.921,188.807L418.645,190.21Z" style="fill:none;stroke:white;stroke-width:1px;"/>
    <path d="M397.59,219.747C397.59,219.747 428.385,215.161 420.783,189.508" style="fill:none;stroke:white;stroke-width:1px;stroke-linejoin:round;stroke-miterlimit:1.5;"/>
    <rect x="180" y="159" width="30" height="30" style="fill:none;stroke:white;stroke-width:1px;stroke-linejoin:round;stroke-miterlimit:1.5;"/>
    <ellipse cx="415" cy="172.5" rx="17" ry="12.5" style="fill:none;stroke:white;stroke-width:1px;stroke-linejoin:round;stroke-miterlimit:1.5;"/>
    <rect x="190.411" y="169.411" width="9.178" height="9.178" style="fill:none;stroke:white;stroke-width:1px;stroke-linejoin:round;stroke-miterlimit:1.5;"/>
    <g>
        <g>
            <path d="M62,176L63,177L77,177L78,176L78,172L62,172L62,176Z" style="fill:none;stroke:white;stroke-width:0.3px;stroke-linejoin:round;stroke-miterlimit:1.5;"/>
            <path d="M62,184L60,182L60,176L62,174L62,176L63,177L76.946,177L78,176L78,174L80,176L80,182L78,184L62,184Z" style="fill:none;stroke:white;stroke-width:0.3px;stroke-linejoin:round;stroke-miterlimit:1.5;"/>
            <path d="M63,173L64,176L66,177L69,176L70,176L73,177L75,176L76,173L75,175L73,176L70,175L69,175L66,176L64,175L63,173Z" style="fill:none;stroke:white;stroke-width:0.3px;stroke-linecap:square;stroke-miterlimit:1.5;"/>
            <path d="M65,174L63,173L64,175L66,176L69,175L70,175L73,176L75,175L76,173L74,174L72,173L67,173L65,174Z" style="fill:none;stroke:white;stroke-width:0.3px;stroke-linecap:square;stroke-miterlimit:1.5;"/>
            <path d="M79,169L76,164L77.075,168L79,169Z" style="fill:none;stroke:white;stroke-width:0.3px;stroke-linejoin:round;stroke-miterlimit:1.5;"/>
            <path d="M60,171L61,172L79,172L80,171L79,171L77,168L76,164L64,164L63,168L61,171L60,171Z" style="fill:none;stroke:white;stroke-width:0.3px;stroke-linejoin:round;stroke-miterlimit:1.5;"/>
            <path d="M61,171L79,171L77,168L63,168L61,171Z" style="fill:none;stroke:white;stroke-width:0.3px;stroke-linejoin:round;stroke-miterlimit:1.5;"/>
            <path d="M62,184L63,180L63,184L62,184Z" style="fill:none;stroke:white;stroke-width:0.3px;stroke-linecap:square;stroke-miterlimit:1.5;"/>
            <path d="M69,182L68,184L69,184L69,182Z" style="fill:none;stroke:white;stroke-width:0.3px;stroke-linecap:square;stroke-miterlimit:1.5;"/>
            <path d="M72,181L72,184L73,184L72,181Z" style="fill:none;stroke:white;stroke-width:0.3px;stroke-linecap:square;stroke-miterlimit:1.5;"/>
            <path d="M76,180L75,184L76,184L76,180Z" style="fill:none;stroke:white;stroke-width:0.3px;stroke-linecap:square;stroke-miterlimit:1.5;"/>
            <path d="M78,179L78,184L79,183L78,179Z" style="fill:none;stroke:white;stroke-width:0.3px;stroke-linecap:square;stroke-miterlimit:1.5;"/>
            <path d="M65,181L65,184L66,184L65,181Z" style="fill:none;stroke:white;stroke-width:0.3px;stroke-linecap:square;stroke-miterlimit:1.5;"/>
        </g>
        <g>
            <path d="M153.958,177.045L154.958,178.045L168.958,178.045L169.958,177.045L169.958,173.045L153.958,173.045L153.958,177.045Z" style="fill:none;stroke:white;stroke-width:0.3px;stroke-linejoin:round;stroke-miterlimit:1.5;"/>
            <path d="M153.958,185.045L151.958,183.045L151.958,177.045L153.958,175.045L153.958,177.045L154.958,178.045L168.903,178.045L169.958,177.045L169.958,175.045L171.958,177.045L171.958,183.045L169.958,185.045L153.958,185.045Z" style="fill:none;stroke:white;stroke-width:0.3px;stroke-linejoin:round;stroke-miterlimit:1.5;"/>
            <path d="M154.958,174.045L155.958,177.045L157.958,178.045L160.958,177.045L161.958,177.045L164.958,178.045L166.958,177.045L167.958,174.045L166.958,176.045L164.958,177.045L161.958,176.045L160.958,176.045L157.958,177.045L155.958,176.045L154.958,174.045Z" style="fill:none;stroke:white;stroke-width:0.3px;stroke-linecap:square;stroke-miterlimit:1.5;"/>
            <path d="M156.958,175.045L154.958,174.045L155.958,176.045L157.958,177.045L160.958,176.045L161.958,176.045L164.958,177.045L166.958,176.045L167.958,174.045L165.958,175.045L163.958,174.045L158.958,174.045L156.958,175.045Z" style="fill:none;stroke:white;stroke-width:0.3px;stroke-linecap:square;stroke-miterlimit:1.5;"/>
            <path d="M170.958,170.045L167.958,165.045L169.032,169.045L170.958,170.045Z" style="fill:none;stroke:white;stroke-width:0.3px;stroke-linejoin:round;stroke-miterlimit:1.5;"/>
            <path d="M151.958,172.045L152.958,173.045L170.958,173.045L171.958,172.045L170.958,172.045L168.958,169.045L167.958,165.045L155.958,165.045L154.958,169.045L152.958,172.045L151.958,172.045Z" style="fill:none;stroke:white;stroke-width:0.3px;stroke-linejoin:round;stroke-miterlimit:1.5;"/>
            <path d="M152.958,172.045L170.958,172.045L168.958,169.045L154.958,169.045L152.958,172.045Z" style="fill:none;stroke:white;stroke-width:0.3px;stroke-linejoin:round;stroke-miterlimit:1.5;"/>
            <path d="M153.958,185.045L154.958,181.045L154.958,185.045L153.958,185.045Z" style="fill:none;stroke:white;stroke-width:0.3px;stroke-linecap:square;stroke-miterlimit:1.5;"/>
            <path d="M160.958,183.045L159.958,185.045L160.958,185.045L160.958,183.045Z" style="fill:none;stroke:white;stroke-width:0.3px;stroke-linecap:square;stroke-miterlimit:1.5;"/>
            <path d="M163.958,182.045L163.958,185.045L164.958,185.045L163.958,182.045Z" style="fill:none;stroke:white;stroke-width:0.3px;stroke-linecap:square;stroke-miterlimit:1.5;"/>
            <path d="M167.958,181.045L166.958,185.045L167.958,185.045L167.958,181.045Z" style="fill:none;stroke:white;stroke-width:0.3px;stroke-linecap:square;stroke-miterlimit:1.5;"/>
            <path d="M169.958,180.045L169.958,185.045L170.958,184.045L169.958,180.045Z" style="fill:none;stroke:white;stroke-width:0.3px;stroke-linecap:square;stroke-miterlimit:1.5;"/>
            <path d="M156.958,182.045L156.958,185.045L157.958,185.045L156.958,182.045Z" style="fill:none;stroke:white;stroke-width:0.3px;stroke-linecap:square;stroke-miterlimit:1.5;"/>
        </g>
        <path d="M81.585,179.076L80.236,174.785C80.014,174.077 80.091,173.29 80.447,172.638L83.93,166.289L85.555,167.268C86.043,167.561 86.302,168.134 86.197,168.693L85.855,170.535L92.112,168.569C93.016,168.285 93.98,168.788 94.264,169.692C94.299,169.804 94.321,169.919 94.336,170.037C95.207,169.828 96.104,170.323 96.376,171.188C96.553,171.752 96.425,172.332 96.086,172.762C96.224,172.928 96.329,173.125 96.397,173.341C96.681,174.245 96.178,175.21 95.274,175.494L95.09,175.551C95.143,175.65 95.191,175.757 95.226,175.869C95.51,176.773 95.007,177.737 94.103,178.021L85.029,180.873C83.581,181.328 82.04,180.524 81.585,179.076ZM84.444,168.2L81.654,173.295C81.477,173.624 81.433,174.012 81.545,174.366L82.895,178.664C83.122,179.385 83.897,179.789 84.617,179.562L93.691,176.711C93.875,176.653 93.973,176.464 93.916,176.28C93.858,176.097 93.669,175.998 93.485,176.056L89.653,177.26L89.241,175.95L94.862,174.183C95.046,174.126 95.144,173.936 95.087,173.753C95.029,173.569 94.84,173.471 94.656,173.528L89.035,175.295L88.623,173.984L94.841,172.031C95.024,171.973 95.123,171.783 95.065,171.6C95.008,171.417 94.818,171.318 94.635,171.375L88.417,173.329L88.006,172.019L92.729,170.535C92.913,170.477 93.011,170.287 92.954,170.104C92.896,169.921 92.7,169.824 92.523,169.879L84.092,172.529L84.844,168.442L84.444,168.2Z" style="fill:white;fill-rule:nonzero;"/>
        <path d="M173.543,180.121L172.194,175.83C171.972,175.122 172.048,174.335 172.405,173.683L175.888,167.333L177.513,168.313C178.001,168.606 178.26,169.179 178.155,169.738L177.812,171.58L184.069,169.614C184.973,169.33 185.938,169.833 186.222,170.737C186.257,170.849 186.279,170.964 186.294,171.082C187.164,170.873 188.061,171.368 188.333,172.233C188.51,172.797 188.383,173.377 188.043,173.807C188.181,173.973 188.287,174.17 188.355,174.386C188.639,175.29 188.136,176.254 187.231,176.539L187.048,176.596C187.101,176.695 187.149,176.802 187.184,176.914C187.468,177.818 186.965,178.782 186.061,179.066L176.987,181.918C175.539,182.373 173.998,181.569 173.543,180.121ZM176.402,169.245L173.612,174.34C173.435,174.669 173.391,175.057 173.502,175.411L174.853,179.709C175.079,180.43 175.854,180.834 176.575,180.607L185.649,177.756C185.832,177.698 185.931,177.509 185.873,177.325C185.816,177.142 185.626,177.043 185.443,177.101L181.61,178.305L181.199,176.995L186.82,175.228C187.003,175.171 187.102,174.981 187.044,174.798C186.987,174.614 186.797,174.516 186.614,174.573L180.993,176.34L180.581,175.029L186.798,173.076C186.982,173.018 187.08,172.828 187.023,172.645C186.965,172.462 186.776,172.363 186.592,172.42L180.375,174.374L179.963,173.064L184.687,171.58C184.87,171.522 184.969,171.332 184.911,171.149C184.854,170.966 184.658,170.869 184.481,170.924L176.049,173.574L176.802,169.486L176.402,169.245Z" style="fill:white;fill-rule:nonzero;"/>
    </g>
</svg>
