<svg viewBox="0 0 160 160" xmlns="http://www.w3.org/2000/svg" fill-rule="evenodd" clip-rule="evenodd" stroke-miterlimit="1.5">
  <path fill="none" d="M0 0h160v160H0z"/>
  <g>
    <path fill="#fca160" d="M16 24h128v120H16z"/>
    <path d="M16 112h72l8 8 8-8h40v40l-8 8H24l-8-8v-40z" fill="#8a0404"/>
    <path fill="#f2640d" d="M40 120h48v16H40zM104 120h32v16h-32z"/>
    <path d="M56 96v8l32-8h40v8" fill="none" stroke="#8a0404" stroke-width="4"/>
    <path d="M112 64l-8 16V64l16-16v8l24-8-8 8-24 8z" fill="#0d28f2"/>
    <path d="M144 56V24l-8-16-16-8v8l-10-8H88v8l-8-8H56v8L32 0v8L8 16l8 8-8 16h8v24l8-16 8-8 24-8h8v16l8-16h48l16 8 8 16z" fill="#0d28f2"/>
    <path d="M96 32H72l8-8h8l8 8zM40 8l-8-8v8l8 16 8 8M24 24L8 16l8 8 16 8M128 16l-8-16v8l8 24M72 16L56 0v8l8 8v16M96 8l-8-8v8l16 16" fill="#10048a"/>
    <path d="M80 80V64L64 48v8l-24-8 8 8 24 8 8 16z" fill="#0d28f2"/>
    <path d="M56 80l8-8 8 8-8 8-8-8zM112 80l8-8 8 8-8 8-8-8z" fill="#8a0404"/>
    <path d="M0 96h24l8 8v24H8l-8-8V96z" fill="#f7c707"/>
    <path d="M16 96l8 8h8l-8-8h-8z" fill="#e5f20d"/>
    <path d="M136 128v-24l8-8h16v24l-8 8h-16z" fill="#f7c707"/>
    <path fill="#f2640d" d="M56 144h32v8H56zM104 144h24v8h-24z"/>
    <path fill="#e5f20d" d="M152 96h8v8h-8z"/>
  </g>
</svg>
