<svg viewBox="0 0 160 160" version="1.1" xmlns="http://www.w3.org/2000/svg">
    <rect id="Artboard1" x="0" y="0" width="160" height="160" style="fill:none;"/>
    <path d="M16,96L24,104L136,104L144,96L144,56L136,48L24,48L16,56L16,96Z" style="fill:rgb(165,151,122);"/>
    <path d="M16,160L0,144L0,96L16,80L24,88L136,88L144,80L160,96L160,144L144,160L16,160Z" style="fill:rgb(216,214,211);"/>
    <path d="M24,72L32,96L48,104L72,96L80,96L104,104L120,96L128,72L120,88L104,96L80,88L72,88L48,96L32,88L24,72Z" style="fill:rgb(146,141,135);"/>
    <path d="M40,80L24,72L32,88L48,96L72,88L80,88L104,96L120,88L128,72L112,80L96,72L56,72L40,80Z" style="fill:rgb(216,214,211);"/>
    <path d="M152,40L128,0L96,8L152,40Z" style="fill:rgb(92,34,134);"/>
    <path d="M0,56L8,64L152,64L160,56L144,56L136,32L128,0L32,0L24,32L16,56" style="fill:rgb(139,64,191);"/>
    <path d="M8,56L152,56L136,32L24,32L8,56Z" style="fill:rgb(229,242,13);"/>
    <path d="M16,160L24,128L24,160L16,160Z" style="fill:rgb(146,141,135);"/>
    <path d="M72,144L64,160L72,160L72,144Z" style="fill:rgb(146,141,135);"/>
    <path d="M96,136L96,160L104,160L96,136Z" style="fill:rgb(146,141,135);"/>
    <path d="M128,128L120,160L128,160L128,128Z" style="fill:rgb(146,141,135);"/>
    <path d="M144,120L144,160L152,152L144,120Z" style="fill:rgb(146,141,135);"/>
    <path d="M40,136L40,160L48,160L40,136Z" style="fill:rgb(146,141,135);"/>
</svg>
